<?xml version="1.0" encoding="iso-8859-1"?>
<!-- Generator: Adobe Illustrator 19.0.0, SVG Export Plug-In . SVG Version: 6.00 Build 0)  -->
<svg version="1.1" id="Capa_1" xmlns="http://www.w3.org/2000/svg" xmlns:xlink="http://www.w3.org/1999/xlink" x="0px" y="0px"
	 viewBox="0 0 512 512" style="enable-background:new 0 0 512 512;" xml:space="preserve">
<g>
	<g>
		<path d="M382.811,375.674c-1.645-1.874-4.015-2.949-6.508-2.949H135.696c-2.493,0-4.864,1.076-6.507,2.949
			c-1.644,1.873-2.399,4.365-2.074,6.836l13.301,101.16c2.122,16.15,16.006,28.33,32.297,28.33h166.572
			c16.29,0,30.175-12.178,32.299-28.329l13.301-101.161C385.211,380.039,384.454,377.547,382.811,375.674z M354.418,481.414
			c-0.995,7.568-7.501,13.273-15.133,13.273H172.713c-7.633,0-14.139-5.707-15.133-13.272c0-0.001,0-0.001,0-0.001l-12.015-91.376
			h220.868L354.418,481.414z"/>
	</g>
</g>
<g>
	<g>
		<path d="M422.326,75.145c-1.645-1.874-4.015-2.949-6.508-2.949H96.18c-2.493,0-4.864,1.076-6.507,2.949
			c-1.644,1.874-2.399,4.365-2.074,6.836l16.036,121.962c0.567,4.308,4.238,7.528,8.583,7.528h287.566
			c4.344,0,8.016-3.22,8.583-7.528l16.036-121.962C424.726,79.51,423.97,77.019,422.326,75.145z M392.191,194.158H119.81
			l-13.76-104.65H405.95L392.191,194.158z"/>
	</g>
</g>
<g>
	<g>
		<path d="M406.29,197.107c-1.645-1.874-4.015-2.948-6.508-2.948H112.215c-2.493,0-4.864,1.076-6.507,2.948
			c-1.644,1.874-2.399,4.365-2.074,6.836l23.48,178.567c0.567,4.306,4.238,7.528,8.583,7.528h240.607
			c4.344,0,8.016-3.221,8.582-7.528l23.48-178.567C408.69,201.473,407.933,198.981,406.29,197.107z M368.71,372.726H143.288
			l-21.203-161.255h267.828L368.71,372.726z"/>
	</g>
</g>
<g>
	<g>
		<path d="M442.855,69.172l-7.76-28.269c-1.912-6.962-8.288-11.823-15.507-11.823H92.412c-7.219,0-13.596,4.863-15.507,11.824
			L69.147,69.17c-1.341,4.878-0.349,9.984,2.717,14.007c3.068,4.024,7.729,6.332,12.79,6.332h342.693
			c5.061,0,9.721-2.308,12.79-6.332C443.202,79.154,444.193,74.05,442.855,69.172z M86.269,72.196l7.083-25.803h325.296
			l7.083,25.803H86.269z"/>
	</g>
</g>
<g>
	<g>
		<path d="M373.813,0H138.187c-17.862,0-32.394,14.532-32.394,32.394v5.343c0,4.78,3.876,8.656,8.656,8.656H397.55
			c4.78,0,8.656-3.876,8.656-8.656v-5.343C406.206,14.532,391.675,0,373.813,0z M123.471,29.081
			c1.515-6.727,7.537-11.768,14.716-11.768h235.626c7.178,0,13.2,5.041,14.713,11.768H123.471z"/>
	</g>
</g>
<g>
	<g>
		<path d="M321.662,254.414c-2.427-5.925-5.861-11.255-10.225-15.864l-0.195-0.21c-0.232-0.253-0.466-0.505-0.722-0.762
			c-24.1-24.098-68.164-19.246-98.226,10.815c-29.338,29.338-34.866,71.655-12.591,96.334c0.579,0.642,1.162,1.278,1.776,1.891
			c3.891,3.892,8.401,7.123,13.404,9.602c7.879,3.906,16.674,5.787,25.8,5.786c20.235-0.002,42.076-9.256,59.023-26.2
			C323.173,312.338,331.997,279.629,321.662,254.414z M287.464,323.565c-19.412,19.411-46.098,26.458-64.893,17.145
			c-3.314-1.642-6.291-3.773-8.85-6.332c-0.403-0.401-0.779-0.821-1.162-1.245c-15.832-17.539-10.459-50.061,11.976-72.496
			c13.886-13.885,31.235-21.22,46.66-21.22c10.472,0,20.059,3.382,27.069,10.39l0.206,0.223c0.144,0.157,0.289,0.314,0.415,0.447
			c2.868,3.03,5.142,6.563,6.755,10.503c0.001,0,0.001,0,0.001,0.001C313.243,279.524,305.767,305.26,287.464,323.565z"/>
	</g>
</g>
<g>
	<g>
		<path d="M313.402,243.675c-0.556-4.748-4.847-8.144-9.604-7.59c-20.891,2.446-40.599,13.841-52.719,30.48
			c-4.562,6.26-7.828,12.732-10.987,18.99l-0.056,0.113c-1.063,2.102-2.065,4.088-3.116,6.06
			c-6.037,11.318-13.554,21.793-22.341,31.138c-5.707,6.067-8.681,6.925-9.457,7.043c-3.148,0.479-5.778,2.648-6.848,5.646
			c-1.07,2.999-0.409,6.343,1.724,8.708c0.571,0.633,1.149,1.263,1.758,1.873c1.691,1.695,3.909,2.542,6.128,2.542
			c2.212,0,4.424-0.843,6.115-2.529c0.543-0.543,1-1.139,1.369-1.772c3.784-2.048,7.661-5.224,11.824-9.651
			c9.836-10.457,18.248-22.183,25.006-34.851c1.143-2.142,2.236-4.309,3.294-6.403l0.056-0.113
			c2.848-5.642,5.792-11.476,9.525-16.599c9.329-12.807,24.559-21.584,40.74-23.479C310.56,252.723,313.959,248.423,313.402,243.675
			z"/>
	</g>
</g>
<g>
</g>
<g>
</g>
<g>
</g>
<g>
</g>
<g>
</g>
<g>
</g>
<g>
</g>
<g>
</g>
<g>
</g>
<g>
</g>
<g>
</g>
<g>
</g>
<g>
</g>
<g>
</g>
<g>
</g>
</svg>
