<?xml version="1.0" encoding="utf-8"?>
<!-- Generator: Adobe Illustrator 16.0.2, SVG Export Plug-In . SVG Version: 6.00 Build 0)  -->
<!DOCTYPE svg PUBLIC "-//W3C//DTD SVG 1.1//EN" "http://www.w3.org/Graphics/SVG/1.1/DTD/svg11.dtd">
<svg version="1.1" id="Vrstva_1" xmlns="http://www.w3.org/2000/svg" xmlns:xlink="http://www.w3.org/1999/xlink" x="0px" y="0px"
	 width="120.114px" height="129px" viewBox="0 0 120.114 129" enable-background="new 0 0 120.114 129" xml:space="preserve">
<circle opacity="0.3" fill="#F292A6" cx="60.614" cy="65.25" r="58.5"/>
<g>
	<g>
		<defs>
			<rect id="SVGID_1_" x="29.114" y="31.244" width="63" height="68.012"/>
		</defs>
		<clipPath id="SVGID_2_">
			<use xlink:href="#SVGID_1_"  overflow="visible"/>
		</clipPath>
		<path clip-path="url(#SVGID_2_)" fill="#FFFFFF" d="M47.06,75.946h37.336c4.232,0,7.687-3.455,7.687-7.688V52.383
			c0-0.028,0-0.056-0.014-0.084c0-0.027-0.015-0.069-0.015-0.097s-0.014-0.056-0.014-0.083c-0.014-0.028-0.014-0.056-0.027-0.097
			c-0.014-0.028-0.014-0.056-0.027-0.084c-0.016-0.028-0.016-0.056-0.028-0.083c-0.015-0.028-0.028-0.056-0.042-0.097
			c-0.014-0.028-0.028-0.056-0.042-0.07l-0.042-0.084c-0.014-0.027-0.027-0.042-0.041-0.069s-0.042-0.056-0.057-0.083
			c-0.014-0.028-0.027-0.042-0.055-0.069c-0.014-0.028-0.042-0.042-0.057-0.07c-0.014-0.028-0.041-0.041-0.056-0.069
			c-0.014-0.028-0.042-0.041-0.056-0.056l-0.069-0.069c-0.028-0.014-0.042-0.042-0.069-0.056c-0.027-0.014-0.056-0.042-0.084-0.056
			c-0.027-0.014-0.042-0.028-0.07-0.042c-0.027-0.013-0.055-0.028-0.082-0.056l-0.168-0.083l-0.083-0.042
			c-0.028-0.014-0.056-0.014-0.084-0.028c-0.028-0.014-0.069-0.028-0.097-0.028c-0.028,0-0.057-0.014-0.07-0.014
			c-0.041-0.014-0.069-0.014-0.111-0.014c-0.014,0-0.028-0.014-0.057-0.014l-47.319-6.531v-6.601c0-0.069,0-0.139-0.013-0.195
			c0-0.013,0-0.028-0.016-0.055c0-0.042-0.013-0.084-0.013-0.126c-0.014-0.042-0.014-0.069-0.028-0.111
			c0-0.028-0.014-0.042-0.014-0.069l-0.042-0.125c0-0.014-0.014-0.042-0.014-0.056c-0.015-0.042-0.028-0.07-0.056-0.111
			c-0.014-0.015-0.014-0.042-0.027-0.056c-0.015-0.028-0.028-0.056-0.057-0.084c-0.014-0.027-0.027-0.042-0.042-0.069
			c-0.013-0.028-0.028-0.042-0.041-0.07c-0.015-0.028-0.042-0.056-0.056-0.083l-0.125-0.125l-0.043-0.042
			c-0.027-0.028-0.055-0.056-0.097-0.083c-0.015-0.014-0.042-0.028-0.056-0.042c-0.028-0.028-0.056-0.042-0.084-0.069
			c-0.041-0.028-0.084-0.056-0.111-0.069c-0.014-0.014-0.027-0.014-0.041-0.028c-0.057-0.028-0.125-0.056-0.182-0.084L31.728,31.48
			c-0.961-0.404-2.061,0.042-2.465,1.002c-0.403,0.961,0.042,2.061,1.002,2.465l9.108,3.844v41.193c0,3.898,2.925,7.129,6.698,7.617
			c-0.682,1.141-1.086,2.479-1.086,3.898c0,4.191,3.411,7.59,7.589,7.59s7.59-3.412,7.59-7.59c0-1.393-0.376-2.715-1.044-3.83
			h16.906c-0.669,1.129-1.045,2.438-1.045,3.83c0,4.191,3.412,7.59,7.59,7.59c4.177,0,7.589-3.412,7.589-7.59
			s-3.412-7.59-7.589-7.59H47.06c-2.172,0-3.926-1.768-3.926-3.926v-5.097C44.274,75.555,45.626,75.946,47.06,75.946L47.06,75.946z
			 M56.419,91.486c0,2.117-1.728,3.83-3.83,3.83c-2.104,0-3.83-1.727-3.83-3.83s1.727-3.83,3.83-3.83
			C54.691,87.656,56.419,89.369,56.419,91.486L56.419,91.486z M86.415,91.486c0,2.117-1.728,3.83-3.83,3.83
			c-2.104,0-3.83-1.727-3.83-3.83s1.727-3.83,3.83-3.83C84.688,87.656,86.415,89.369,86.415,91.486L86.415,91.486z M84.396,72.185
			H47.06c-2.172,0-3.926-1.769-3.926-3.927V47.94l45.188,6.225v14.079C88.322,70.43,86.554,72.185,84.396,72.185L84.396,72.185z
			 M84.396,72.185"/>
	</g>
</g>
<circle fill="#F292A6" cx="100.25" cy="21.235" r="17.012"/>
<rect x="94.75" y="12.61" fill="none" width="11" height="17.25"/>
<text transform="matrix(1 0 0 1 94.75 27.52)" fill="#FFFFFF" font-family="'MyriadPro-Regular'" font-size="21">3</text>
</svg>
