<?xml version="1.0" encoding="utf-8"?>
<!-- Generator: Adobe Illustrator 24.0.2, SVG Export Plug-In . SVG Version: 6.00 Build 0)  -->
<svg version="1.1" xmlns="http://www.w3.org/2000/svg" xmlns:xlink="http://www.w3.org/1999/xlink" x="0px" y="0px"
	 viewBox="0 0 1135.3 1136.6" style="enable-background:new 0 0 1135.3 1136.6;" xml:space="preserve">
<style type="text/css">
	.st0{display:none;}
	.st1{display:inline;fill:#E9A7B0;}
	.st2{display:inline;}
	.st3{opacity:0.5;fill:#E9A7B0;}
	.st4{fill:#FFFFFF;}
	.st5{fill:none;stroke:#FFFFFF;stroke-width:20;stroke-miterlimit:10;}
</style>
<g id="Vrstva_2" class="st0">
	<rect x="1699.6" y="-52.3" class="st1" width="1936.3" height="1368.5"/>
	<rect x="-690.2" y="-288.7" class="st2" width="2075.2" height="1862.8"/>
</g>
<g id="Layer_1">
	<circle class="st3" cx="565.4" cy="569.9" r="569.9"/>
	<g>
		<path class="st4" d="M773.5,536h-0.4c9.3-12.2,17.5-28.7,17.2-48.4c-0.4-26.7-16.4-52.8-47.4-77.6c3.9-11.6,4.7-23.1,2.4-34.4
			c-9-44.6-57.4-62.4-101.8-72.3c1.6-5.2,2.4-10.8,2.4-16.5c0-21.8-12.1-40.7-30-50.5c17.8-36.1,41.5-40.1,51-40.1
			c12.1,0,19.8,2.6,24.2,4.9c3.4,1.8,7.6,1.5,10.7-0.8c5.8-4.4,5-13.2-1.4-16.6c-7.1-3.8-17.9-7.3-33.5-7.3
			c-19,0-36.8,8.8-51.5,25.3c-5,5.6-12.1,15-18.4,28.2c-2.8-0.4-5.7-0.6-8.6-0.6c-21.6,0-40.4,11.9-50.2,29.5
			c-3.6-4-7.6-9.2-10.4-15.1c-1.2-2.5-3.3-4.4-6-5.2c-2.6-0.8-5.5-0.5-7.9,0.8c-29.6,16.6-51.3,38.8-64.3,65.8
			c-11,23.3-13.1,44.6-13.1,57c-0.8,0.3-1.7,0.7-2.4,1c-25.7,11-40.5,31.9-42.8,60.5c-0.9,11.4,0.4,21.9,1.7,29
			c-20.4,7.3-34.6,21.3-39.7,39.6c-4,14.5-2,30.2,5.2,43.7h-8c-3,0-5.9,1.4-7.8,3.7s-2.6,5.4-1.9,8.4l49.1,216.2
			c0.1,0.6,0.3,1.2,0.5,1.8c3.8,13.3,15.8,22.4,29.8,22.4h283.5c14,0,26-9.1,29.8-22.4c0.2-0.6,0.3-1.2,0.5-1.8L783.1,548
			c0.7-2.9,0-6-1.9-8.4C779.4,537.4,776.5,536,773.5,536z M588.5,249.2c20.8,0,37.7,16.9,37.7,37.7c0,20.8-16.9,37.7-37.7,37.7
			s-37.7-16.9-37.7-37.7C550.8,266,567.7,249.2,588.5,249.2z M420.3,768.6c-2.7,0-5.2-0.9-7.2-2.6c-1.9-1.5-3.2-3.7-3.8-6.2
			l-46.4-204.1H395l35.5,208c0.1,0.8,0.3,1.6,0.5,2.3c0.2,0.9,0.5,1.7,0.7,2.6H420.3L420.3,768.6z M455.7,768.6
			c-1,0-2.4-0.9-3.5-2.6c-1-1.4-1.8-3.3-2.2-5.7l-34.9-204.6h32.3L471,763.1c0.1,1,0.3,1.9,0.4,2.9c0.1,0.9,0.3,1.7,0.5,2.6H455.7z
			 M493,768.6c-0.3-0.5-0.8-1.4-1.2-2.6c-0.4-1.3-0.9-3-1.1-5.1l-23.3-205.1h32.4l11.7,206.8c0.1,1.2,0.2,2.3,0.3,3.4
			c0.1,0.9,0.2,1.7,0.3,2.6L493,768.6L493,768.6z M552.1,768.6h-19.9c-0.1-0.7-0.3-1.6-0.4-2.6c-0.2-1.3-0.3-2.8-0.4-4.5
			l-11.7-205.7h32.5L552.1,768.6L552.1,768.6z M591.9,768.6H572V555.8h32.5l-11.7,205.7c-0.1,1.7-0.3,3.3-0.4,4.5
			C592.2,767,592,767.9,591.9,768.6z M631.1,768.6H612c0.1-0.8,0.2-1.7,0.3-2.6c0.1-1.1,0.2-2.2,0.3-3.4l11.8-206.8h32.4
			l-23.3,205.1c-0.3,2.1-0.7,3.8-1.1,5.1C631.9,767.2,631.4,768.1,631.1,768.6z M668.3,768.6h-16.2c0.2-0.8,0.4-1.7,0.5-2.6
			c0.2-0.9,0.3-1.9,0.4-2.9l23.6-207.4h32.3L674,760.4c-0.4,2.4-1.2,4.3-2.2,5.7C670.7,767.8,669.3,768.6,668.3,768.6z M714.7,759.9
			c-0.6,2.5-1.9,4.7-3.8,6.2c-1.9,1.6-4.4,2.6-7.2,2.6h-11.4c0.3-0.8,0.5-1.7,0.7-2.6c0.2-0.8,0.3-1.5,0.5-2.3L729,555.9h21l0,0h11
			L714.7,759.9z M746.3,536h-152c22.3-11.7,51.2-28,78.4-47.1c4.5-3.1,5.6-9.3,2.4-13.8c-3.1-4.5-9.3-5.6-13.8-2.4
			C614.1,505.8,560,531.1,549.4,536H382.6c-9.9-10.6-13.9-25.3-10.2-38.4c4.1-14.8,17.4-25.1,37.5-29.1
			c18.8-3.8,68.6-14.3,124.2-30.2c5.3-1.5,8.3-7,6.8-12.3s-7-8.3-12.3-6.8c-49.5,14.2-94.4,24.1-116.3,28.6
			c-3-16.3-5-51.6,29.7-66.5c13.4-5.7,40.5-10.7,69.2-15.9l9.6-1.8c5.4-1,9-6.1,8-11.5s-6.2-9-11.5-8l-9.6,1.8
			c-18.6,3.4-36.5,6.6-51.1,10.2c1.3-23.1,11.1-63.9,58.9-94.4c3.6,5.4,7.4,9.8,10.5,12.9c2.1,2.2,4,3.9,5.5,5.3
			c-0.3,2.3-0.4,4.5-0.4,6.9c0,31.7,25.8,57.5,57.5,57.5c18.6,0,35.2-8.9,45.7-22.7c19.6,4.2,35.7,9,48.8,14.6
			c2.5,3.8,2.1,6.5,1.5,8.6c-2.5,7.7-17.8,28.9-107,59.2c-5.2,1.8-8,7.4-6.2,12.6c1.4,4.1,5.3,6.7,9.4,6.7c1.1,0,2.1-0.2,3.2-0.5
			c32-10.9,57.9-21.7,77.1-32.2c24.3-13.3,38.2-26.3,42.5-39.7c0.3-1,0.6-2,0.8-3c12.2,8.9,19.2,19.3,21.8,31.7
			c3.6,18-4.5,37.9-24.3,59.1c-3.7,4-3.5,10.3,0.5,14c1.9,1.8,4.3,2.7,6.8,2.7c2.7,0,5.3-1.1,7.3-3.2c7.4-7.9,13.5-15.8,18.2-23.7
			c23.7,19.9,35.9,39.9,36.3,59.4C770.8,509.6,756.5,526.6,746.3,536z"/>
	</g>
	<g>
		<g>
			<path class="st4" d="M390.6,922.1c-3,2.4-4.5,3.6-7.5,6c-3.1-4.4-8.2-9.6-14.9-14.5c-16.8-12.3-39.8-15.8-55.1,0.8
				c-17.2,18.6-4.4,43,13.2,55.7c7.8,5.6,16.7,9.9,23.1,11.5c-0.8,3.7-1.2,5.5-2,9.2c-10.6-2.7-20.6-8.6-29.3-15.1
				c-21.9-16.3-40-48.8-16.6-71.9c20.2-20,51.2-13.2,71.9,2C383.2,913,388.5,919,390.6,922.1z"/>
			<path class="st4" d="M448,974.3c-5.1,14.1-10.2,28.3-15.4,42.4c-2.2,6-3.9,11.4-5.1,16.2c-5.3-1.9-7.9-2.9-13.1-5
				c1.2-3.9,1.8-5.8,2.9-9.7c-0.1,0-0.2-0.1-0.3-0.1c-9.6,5.1-21.4,3.6-30.8-1c-14.8-7.2-22.8-22.5-13.4-37.8
				c6-10.5,12-21,18.1-31.4c4.8,2.7,7.1,4,12,6.6c-5.3,10.1-10.6,20.3-16,30.4c-6,9.9-2.7,21.4,8,26c9.3,4,18.3,2.3,22.7-1.3
				c1.4-1.2,2.7-2.9,3.4-4.8c4.8-11.8,9.5-23.5,14.3-35.3C440.4,971.5,442.9,972.5,448,974.3z"/>
			<path class="st4" d="M492.4,1013.3c9,14.6,19.2,28.3,29.9,41.8c-7.5-0.9-11.3-1.4-18.8-2.6c-7.9-11.3-15.5-22.7-22.3-34.7
				c-3.5,1.8-5.3,2.7-8.8,4.4c-2.3,9-3.5,13.6-5.8,22.6c-6-1.5-9-2.4-15-4.1c8.6-29.1,17.1-58.2,25.7-87.3c4.7,1.4,7,2,11.8,3.2
				c-4.7,18.5-9.5,37.1-14.2,55.6c0.1,0,0.2,0,0.3,0.1c2.4-1.6,5.8-3.6,8.5-5.2c8.9-5.1,17.6-10.7,26-16.5c6.3,1.1,9.5,1.6,15.9,2.4
				C514.9,1000.4,503.9,1007.1,492.4,1013.3z"/>
			<path class="st4" d="M577.8,1005.4c-1.4-0.2-2.8-0.3-4.7-0.3c-9.6,0-16.7,5.8-18.9,14.1c-0.4,1.5-0.8,3.3-0.9,5.2
				c-0.5,11-1,22-1.5,33c-6.2-0.3-9.2-0.5-15.4-1c1.2-14.2,2.4-28.3,3.5-42.5c0.6-7.3,1-13.5,1-19.3c4.6,0.4,7,0.5,11.6,0.8
				c-0.1,4.9-0.1,7.3-0.2,12.2c0.3,0,0.4,0,0.6,0c3.8-8.1,12-13.1,20.8-13.1c1.5,0,2.6,0.1,3.8,0.3
				C577.7,999.1,577.7,1001.2,577.8,1005.4z"/>
			<path class="st4" d="M650.3,1035.4c-1.8-9.1-2.7-13.6-4.5-22.8c-2.9-16-17.1-22.7-32.3-20.6c-8.9,1.2-17.7,3.9-23.6,7.5
				c1.4,2.9,2.1,4.4,3.5,7.3c5.1-3.1,12.2-5.5,19.1-6.2c15.2-1.7,18.3,6.8,19.1,11.9c0.1,0.5,0.1,0.8,0.2,1.3
				c-15.2,2.2-46.6,7.3-45.7,27.5c0.6,14,17.4,16.9,26.9,16c8.6-0.8,18.2-4,24.6-12.5c0.2,0,0.3-0.1,0.5-0.1c1,3,1.5,4.5,2.5,7.5
				c5.6-0.9,8.4-1.4,14-2.5C652.7,1045.8,651.4,1040.7,650.3,1035.4z M634.8,1035.7c-1.5,5.5-7.7,11.8-18.6,12.9
				c-7.8,0.8-14.9-2.4-15.2-9.4c-0.5-13.8,22.2-16.5,32.4-17.8c0.7,4.3,1,6.4,1.7,10.6C635.2,1033.1,635.1,1034.4,634.8,1035.7z
				 M617,966c-3.9,7.9-6,11.9-10.4,19.7c3.7-0.4,5.6-0.6,9.3-1c6.2-8.2,9.2-12.3,14.6-20.7C625.1,964.9,622.4,965.3,617,966z"/>
			<path class="st4" d="M682.4,1003.4c0.1,1.5,0.3,3.4,0.9,5.2c3.2,10.6,6.3,21.1,9.5,31.7c-6,1.8-9,2.6-15,4.2
				c-3.6-13.8-7.1-27.5-10.7-41.3c-1.8-7.1-3.6-13.1-5.4-18.6c4.5-1.2,6.8-1.8,11.3-3.1c1.5,4.6,2.3,6.9,3.9,11.6
				c0.2-0.1,0.4-0.1,0.6-0.2c1-9,7.1-16.3,15.5-19.3c1.4-0.5,2.5-0.8,3.7-0.9c1.5,4,2.2,6,3.7,10c-1.4,0.3-2.8,0.6-4.6,1.2
				C686.7,987,681.8,994.8,682.4,1003.4z"/>
			<path class="st4" d="M800.2,991.1c-5.4,3.5-8.2,5.2-13.7,8.4c-6-10.3-12.1-20.5-18.1-30.8c-5-9.3-15.7-12.3-24.8-7.1
				c-7.8,4.4-12.1,12.2-11.9,18.7c0,1.5,0.5,3.4,1.3,5.2c5.2,11.3,10.4,22.6,15.6,33.9c-5.8,2.7-8.7,3.9-14.5,6.3
				c-5.8-13.9-11.5-27.9-17.3-41.8c-2.5-5.9-4.6-10.7-7-15.3c4.4-1.8,6.6-2.8,11-4.8c2,3.6,3,5.4,5,9c0.1-0.1,0.2-0.1,0.3-0.1
				c2.1-10.6,9.2-16.5,17.2-21.6c11.8-7.5,28.9-4.6,37.1,8.7C786.9,970.3,793.5,980.7,800.2,991.1z"/>
			<path class="st4" d="M860,924.2c-6.5-6.6-9.8-9.9-16.3-16.5c-11.8-12.3-28.1-8.2-39.7,2c-7.2,6.3-13.4,13.5-16.6,20
				c2.8,1.6,4.2,2.5,7,4.1c2.8-5.6,7.7-11.7,13.3-16.4c12.4-10.3,19.8-5.1,23.3-1.3c0.4,0.4,0.5,0.6,0.9,0.9
				c-11.3,10.7-37.2,32.8-25,49.8c8.3,11.6,24.7,3.9,32.3-2.1c7.2-5.7,13.7-14,14.9-25c0.2-0.2,0.2-0.2,0.4-0.4
				c2.5,1.9,3.8,2.9,6.3,4.8c4.4-4.1,6.6-6.3,11-10.6C867.7,931.4,863.8,928,860,924.2z M837.1,955.6c-6.4,5.3-14.8,6.6-18.5,1
				c-7.3-11.5,10.1-26.4,18.7-34c2.9,3.2,4.4,4.8,7.3,7.9c0.8,0.9,1.4,2,1.8,3.3C848.1,939.3,846,948.2,837.1,955.6z"/>
		</g>
	</g>
	<path class="st5" d="M266.1,880.6c-95.5-83.4-155.8-206.1-155.8-342.9C110.2,286.3,314,82.4,565.4,82.4s455.2,203.8,455.2,455.2
		c0,131.2-55.5,249.4-144.2,332.4"/>
</g>
</svg>
